<svg width="21" height="16" viewBox="0 0 21 16" fill="none" xmlns="http://www.w3.org/2000/svg">
<path fill-rule="evenodd" clip-rule="evenodd" d="M18.6817 6.11574H2.73025C2.44333 6.11574 2.21074 6.34833 2.21074 6.63525V13.1115C2.21074 13.3984 2.44333 13.631 2.73025 13.631H18.6817C18.9686 13.631 19.2012 13.3984 19.2012 13.1115V6.63525C19.2012 6.34833 18.9686 6.11574 18.6817 6.11574ZM2.73025 4.31516C1.4489 4.31516 0.410156 5.3539 0.410156 6.63525V13.1115C0.410156 14.3928 1.4489 15.4315 2.73025 15.4315H18.6817C19.963 15.4315 21.0017 14.3928 21.0017 13.1115V6.63525C21.0017 5.3539 19.963 4.31516 18.6817 4.31516H2.73025Z" fill="#0688FF"/>
<path fill-rule="evenodd" clip-rule="evenodd" d="M15.5061 1.80058H5.90697C5.62005 1.80058 5.38746 2.03318 5.38746 2.3201V4.33321H16.0257V2.3201C16.0257 2.03318 15.7931 1.80058 15.5061 1.80058ZM5.90697 0C4.62562 0 3.58688 1.03874 3.58688 2.3201V6.13379H17.8262V2.3201C17.8262 1.03874 16.7875 0 15.5061 0H5.90697Z" fill="#0688FF"/>
</svg>
