<svg width="22" height="18" viewBox="0 0 22 18" fill="none" xmlns="http://www.w3.org/2000/svg">
<path fill-rule="evenodd" clip-rule="evenodd" d="M2.57898 8.21591L3.38907 14.732C3.42488 15.0201 3.66972 15.2364 3.96003 15.2364H18.6509C18.9384 15.2364 19.1817 15.0242 19.2209 14.7395L20.1187 8.21591H2.57898ZM2.27635 6.37363C1.32944 6.37363 0.596612 7.20321 0.713433 8.14288L1.56086 14.9593C1.71136 16.1698 2.74014 17.0786 3.96003 17.0786H18.6509C19.8588 17.0786 20.8813 16.1872 21.046 14.9906L21.9856 8.1633C22.1158 7.21704 21.3805 6.37363 20.4253 6.37363H2.27635Z" fill="#0C8BFF"/>
<path fill-rule="evenodd" clip-rule="evenodd" d="M10.4636 2.35155C9.77803 2.73478 9.48731 3.20201 9.44972 3.54734L9.32713 4.6737L8.2495 4.32378C7.29286 4.01315 6.678 4.03055 6.29102 4.14691C5.92509 4.25695 5.66407 4.48466 5.46063 4.82558C5.0076 5.58476 4.92787 6.75045 4.92787 7.69597L3.08559 7.69597C3.08559 6.77887 3.13517 5.12737 3.87861 3.88153C4.2734 3.21995 4.87741 2.6482 5.76052 2.38266C6.39804 2.19096 7.12095 2.17697 7.9306 2.33734C8.2845 1.66381 8.88859 1.12138 9.56474 0.743439C10.5738 0.179432 11.8759 -0.105262 13.2351 0.03571C16.0318 0.325772 18.9285 2.384 20.257 7.14624L18.4825 7.64129C17.3208 3.47687 14.9622 2.06701 13.045 1.86817C12.0473 1.76469 11.1277 1.98034 10.4636 2.35155Z" fill="#0C8BFF"/>
</svg>
