<svg width="157" height="32" viewBox="0 0 157 32" fill="none" xmlns="http://www.w3.org/2000/svg">
<path d="M45.0021 17.3406C45.8065 16.6154 46.3501 15.5384 46.6545 14.0879C46.7415 13.5824 46.8067 13.0329 46.8067 12.4615C46.8067 11.8242 46.6762 11.1428 46.4153 10.4615C46.0892 9.60438 45.6543 9.14284 45.1325 9.03295C44.3498 8.8791 43.5888 9.31866 42.8714 10.3956C42.2843 11.2308 41.9147 12.1099 41.719 13.011C41.6103 13.5165 41.5668 14.0659 41.5668 14.6154C41.5668 15.2527 41.6973 15.934 41.9582 16.6154C42.2843 17.4725 42.7192 17.934 43.241 18.0439C43.7845 18.1538 44.3716 17.9121 45.0021 17.3406Z" fill="#C4C4C4"/>
<path d="M33.0226 14.0879C32.7182 15.5384 32.1746 16.6154 31.3702 17.3406C30.7396 17.9121 30.1526 18.1538 29.6091 18.0439C29.0872 17.934 28.6524 17.4725 28.3263 16.6154C28.0654 15.934 27.9349 15.2527 27.9349 14.6154C27.9349 14.0659 27.9784 13.5165 28.0871 13.011C28.2828 12.1099 28.6524 11.2308 29.2394 10.3956C29.9569 9.31866 30.7179 8.8791 31.5006 9.03295C32.0224 9.14284 32.4573 9.60438 32.7834 10.4615C33.0443 11.1428 33.1748 11.8242 33.1748 12.4615C33.1748 13.0329 33.1313 13.5824 33.0226 14.0879Z" fill="#C4C4C4"/>
<path fill-rule="evenodd" clip-rule="evenodd" d="M4.93171 6.10352e-05H48.2203C50.9598 6.10352e-05 53.1775 2.24182 53.1775 5.01105V21.7143C53.1775 24.4836 50.9598 26.7253 48.2203 26.7253H32.6964L34.8271 32.0001L25.4563 26.7253H4.95346C2.21395 26.7253 -0.00374774 24.4836 -0.00374774 21.7143V5.01105C-0.0254899 2.2638 2.19221 6.10352e-05 4.93171 6.10352e-05ZM2.64882 4.5494C2.95321 4.13181 3.4098 3.91203 4.01857 3.86808C5.12742 3.78016 5.75794 4.30764 5.91014 5.4505C6.58414 10.0439 7.32338 13.934 8.10609 17.1208L12.8676 7.95599C13.3025 7.12083 13.846 6.68127 14.4983 6.63731C15.4549 6.57138 16.042 7.18676 16.2811 8.48346C16.8247 11.4065 17.5204 13.8901 18.3466 15.9999C18.9119 10.4175 19.8686 6.39555 21.2166 3.91204C21.5427 3.29665 22.0211 2.98896 22.6516 2.945C23.1516 2.90105 23.6082 3.05489 24.0213 3.38456C24.4344 3.71423 24.6519 4.13181 24.6953 4.63731C24.7171 5.03291 24.6519 5.36259 24.4779 5.69226C23.63 7.27467 22.9342 9.93402 22.3689 13.6263C21.8254 17.2087 21.6297 19.9999 21.7601 21.9999C21.8036 22.5494 21.7167 23.0329 21.4992 23.4505C21.2383 23.934 20.847 24.1978 20.3469 24.2417C19.7816 24.2857 19.1946 24.0219 18.6293 23.4285C16.6073 21.3406 14.9983 18.2197 13.8243 14.0659C12.411 16.8791 11.3674 18.989 10.6934 20.3956C9.41062 22.8791 8.32352 24.1538 7.41035 24.2197C6.82331 24.2637 6.32324 23.7582 5.8884 22.7032C4.77955 19.8241 3.58373 14.2637 2.30095 6.02193C2.23572 5.4505 2.34443 4.945 2.64882 4.5494ZM49.394 7.99998C48.6113 6.61537 47.4589 5.7802 45.9152 5.45053C45.5021 5.36262 45.1108 5.31866 44.7412 5.31866C42.6539 5.31866 40.958 6.41756 39.6318 8.61537C38.5012 10.4835 37.9359 12.5494 37.9359 14.8132C37.9359 16.5055 38.2838 17.956 38.9795 19.1648C39.7622 20.5494 40.9146 21.3846 42.4582 21.7143C42.8713 21.8022 43.2627 21.8461 43.6323 21.8461C45.7413 21.8461 47.4372 20.7472 48.7417 18.5494C49.8723 16.6593 50.4376 14.5934 50.4376 12.3297C50.4376 10.6154 50.0897 9.1868 49.394 7.99998ZM32.2833 5.45053C33.8053 5.7802 34.9794 6.61537 35.7621 7.99998C36.4578 9.1868 36.8057 10.6154 36.8057 12.3297C36.8057 14.5934 36.2404 16.6593 35.1098 18.5494C33.8053 20.7472 32.1094 21.8461 30.0004 21.8461C29.6308 21.8461 29.2394 21.8022 28.8263 21.7143C27.2827 21.3846 26.1303 20.5494 25.3476 19.1648C24.6519 17.956 24.304 16.5055 24.304 14.8132C24.304 12.5494 24.8693 10.4835 25.9999 8.61537C27.3261 6.41756 29.022 5.31866 31.1093 5.31866C31.4789 5.31866 31.8702 5.36262 32.2833 5.45053Z" fill="#C4C4C4"/>
<path d="M56.504 13.3409C56.504 11.0992 57.2215 9.25302 58.6782 7.80247C60.135 6.35192 61.9613 5.62664 64.179 5.64862C65.0269 5.64862 65.8314 5.73654 66.5489 5.93434V9.49478C65.7662 9.275 65.0487 9.16511 64.3747 9.16511C63.331 9.16511 62.4831 9.56071 61.7874 10.3739C61.1134 11.1651 60.7655 12.1981 60.7655 13.4508C60.7655 14.7915 61.1133 15.8464 61.8091 16.6376C62.5048 17.4069 63.418 17.8025 64.5703 17.8025C65.1356 17.8025 65.7879 17.6926 66.5489 17.4728V21.0332C65.7227 21.275 64.9617 21.3849 64.2877 21.3849C61.9613 21.3849 60.0915 20.6376 58.6565 19.1651C57.2215 17.6926 56.504 15.7365 56.504 13.3409Z" fill="#C4C4C4"/>
<path fill-rule="evenodd" clip-rule="evenodd" d="M69.071 7.64862C70.2016 6.30796 71.767 5.62664 73.7673 5.62664C75.898 5.62664 77.5286 6.30796 78.681 7.64862C79.8116 9.01126 80.3769 10.9453 80.3769 13.4508C80.3769 15.9563 79.8116 17.9124 78.7027 19.297C77.5939 20.6816 76.0067 21.3849 73.9412 21.3849C71.8105 21.3849 70.1798 20.6816 69.071 19.297C67.9621 17.9124 67.3968 15.9124 67.3968 13.297C67.3968 10.8794 67.9404 8.98928 69.071 7.64862ZM73.7673 17.9783C74.5065 17.9783 75.0935 17.6706 75.4849 17.0552C75.8762 16.4398 76.0937 15.2091 76.1154 13.4069C76.1154 10.4838 75.3327 9.03324 73.8107 9.03324C72.354 9.03324 71.6365 10.4618 71.6365 13.3409C71.6365 15.2091 71.8105 16.4398 72.1801 17.0552C72.5497 17.6706 73.0715 17.9783 73.7673 17.9783Z" fill="#C4C4C4"/>
<path d="M90.3348 9.40687L91.1175 6.04423H96.2921L98.2924 21.0113H94.3353L93.2699 10.7255L90.7913 21.0113H88.0953L85.508 10.7036L84.4861 21.0113H80.703L82.5946 6.04423H87.6387C88.3562 9.275 88.9215 12.0442 89.3346 14.3739L89.7695 12.0442C89.9434 11.1431 90.1391 10.264 90.3348 9.40687Z" fill="#C4C4C4"/>
<path d="M108.446 9.40687L109.229 6.04423H114.382L116.382 21.0113H112.425L111.359 10.7255L108.903 21.0113H106.207L103.619 10.7036L102.597 21.0113H98.8142L100.706 6.04423H105.75C106.467 9.275 107.033 12.0442 107.446 14.3739L107.881 12.0442C108.055 11.1431 108.25 10.264 108.446 9.40687Z" fill="#C4C4C4"/>
<path d="M125.079 15.0992H121.535V17.8464H125.644V21.0332H117.534V6.0662H125.622V9.25302H121.535V12.0003H125.079V15.0992Z" fill="#C4C4C4"/>
<path fill-rule="evenodd" clip-rule="evenodd" d="M137.537 10.6157C137.537 11.3409 137.319 12.0442 136.906 12.7256C136.493 13.4069 135.884 13.9124 135.124 14.264L138.32 21.0113H134.102L130.862 14.1981H130.797V21.0113H126.796V6.04423H131.449C133.319 6.04423 134.819 6.46181 135.906 7.275C136.993 8.08818 137.537 9.20906 137.537 10.6157ZM130.775 8.92335V12.4838C132.536 12.4618 133.428 11.9343 133.428 10.9014C133.428 10.1981 133.232 9.71456 132.819 9.40687C132.406 9.09917 131.732 8.94533 130.775 8.92335Z" fill="#C4C4C4"/>
<path d="M137.711 13.3409C137.711 11.0992 138.428 9.25302 139.885 7.80247C141.342 6.35192 143.19 5.62664 145.386 5.64862C146.234 5.64862 147.038 5.73654 147.756 5.93434V9.49478C146.973 9.275 146.255 9.16511 145.581 9.16511C144.538 9.16511 143.69 9.56071 142.994 10.3739C142.32 11.1651 141.972 12.1981 141.972 13.4508C141.972 14.7915 142.32 15.8464 143.016 16.6376C143.712 17.4069 144.625 17.8025 145.777 17.8025C146.342 17.8025 146.995 17.6926 147.756 17.4728V21.0332C146.929 21.275 146.169 21.3849 145.495 21.3849C143.168 21.3849 141.298 20.6376 139.863 19.1651C138.428 17.6926 137.711 15.7365 137.711 13.3409Z" fill="#C4C4C4"/>
<path d="M152.865 15.0772V17.8244H156.996V21.0113H148.886V6.04423H156.974V9.23105H152.865V11.9783H156.409V15.0772H152.865Z" fill="#C4C4C4"/>
</svg>
